<svg xmlns="http://www.w3.org/2000/svg" viewBox="0 0 32 32" width="32" height="32">
  <defs>
    <linearGradient id="toolGradient" x1="0%" y1="0%" x2="100%" y2="100%">
      <stop offset="0%" style="stop-color:#3b82f6;stop-opacity:1" />
      <stop offset="100%" style="stop-color:#1d4ed8;stop-opacity:1" />
    </linearGradient>
  </defs>
  
  <!-- Background circle -->
  <circle cx="16" cy="16" r="15" fill="url(#toolGradient)" stroke="#1e40af" stroke-width="1"/>
  
  <!-- Wrench tool -->
  <path d="M8 12l3-3 2 2 6-6c1-1 3-1 4 0s1 3 0 4l-6 6 2 2-3 3-2-2-2 2-4-4 2-2-2-2z" fill="white" opacity="0.9"/>
  
  <!-- Screwdriver -->
  <path d="M20 8l4-4 1 1-4 4-1-1z" fill="white" opacity="0.8"/>
  <rect x="19" y="9" width="1" height="8" fill="white" opacity="0.8" transform="rotate(45 19.5 13)"/>
  
  <!-- Small gear accent -->
  <circle cx="24" cy="24" r="3" fill="white" opacity="0.7"/>
  <circle cx="24" cy="24" r="1.5" fill="url(#toolGradient)"/>
</svg>
